# xmcd
#
# Track frame offsets:
#	150
#	14057
#	25395
#	37896
#	50841
#	65775
#	81966
#	94844
#	107333
#	118727
#	132938
#	147222
#	159247
#	170166
#	184654
#	198751
#	213744
#	226472
#	241446
#	262031
#	273508
#	288052
#
# Disc length: 4023 seconds
#
# Revision: 1
# Processed by: cddbd v1.5.2PL0 Copyright (c) Steve Scherf et al.
# Submitted via: audiograbber 1.83.01
#
DISCID=480fb516
DTITLE=Spencer Wiggins - Feed The Flame (The Fame and XL Recordings)
DYEAR=2010
DGENRE=Soul
TTITLE0=I'm At The Breaking Point
TTITLE1=We Gotta Make Up Baby
TTITLE2=This Love Is Gonna Be True
TTITLE3=Holding On To A Dying Love
TTITLE4=You're My Kind Of Woman
TTITLE5=I Can't Be Satisfied
TTITLE6=I'd Rather Go Blind
TTITLE7=Love Works That Way
TTITLE8=Feed The Flame
TTITLE9=Make Me Yours
TTITLE10=Ooh-Be Ooh-Be-Doo
TTITLE11=Take Time To Love Your Woman
TTITLE12=Let's Talk It Over
TTITLE13=I Can't Get Enough Of You Baby
TTITLE14=Double Lovin'
TTITLE15=Love Machine
TTITLE16=Love Attack
TTITLE17=Hit And Run
TTITLE18=Best Thing I Ever Had
TTITLE19=Water
TTITLE20=Love Me Tonight
TTITLE21=Cry To Me
EXTD=
EXTT0=
EXTT1=
EXTT2=
EXTT3=
EXTT4=
EXTT5=
EXTT6=
EXTT7=
EXTT8=
EXTT9=
EXTT10=
EXTT11=
EXTT12=
EXTT13=
EXTT14=
EXTT15=
EXTT16=
EXTT17=
EXTT18=
EXTT19=
EXTT20=
EXTT21=
PLAYORDER=
